<svg width="192" height="192" viewBox="0 0 192 192" fill="none" xmlns="http://www.w3.org/2000/svg">

  <defs>
    <style>
      @media (prefers-color-scheme: dark) {
        rect {
          fill: #000;
        }
	path {
          fill: #fff;
	}
      }
    </style>
  </defs>

<rect width="192" height="192" fill="white"/>
<path d="M31.9817 73.6769H25.5V56.0142H49.7024V68.409C55.1304 59.7326 63.4321 54 74.288 54C86.1019 54 96 60.9721 100.789 71.3528C105.419 60.8172 116.914 54 128.728 54C137.987 54 147.087 57.7185 153.313 64.5356C160.018 72.1275 160.018 80.3391 160.018 89.7902V121.087H166.5V138.75H140.525V94.4383C140.525 89.0155 140.525 84.2125 137.971 79.4095C134.778 74.9164 129.51 72.5923 124.082 72.5923C118.654 72.5923 113.066 74.7614 109.714 78.7898C105.722 83.7477 105.722 88.3958 105.722 94.4383V138.75H86.2456V95.6778C86.2456 90.7198 86.2456 84.5224 83.6912 80.1842C80.9772 75.2262 75.3896 72.5923 69.6423 72.5923C64.2143 72.5923 59.5846 74.4516 56.0723 78.6348C51.7619 83.7477 51.4426 89.1705 51.4426 95.5229V138.75H31.9817V73.6769Z" fill="black"/>
</svg>
