<svg viewBox="0 0 60.3789 17.4746" xmlns="http://www.w3.org/2000/svg"><path d="M40.2705 4.6084C41.8617 4.60846 43.1495 4.96854 44.1338 5.68848C45.1182 6.39258 45.6844 7.36901 45.832 8.61719H42.8545C42.7396 7.9931 42.4766 7.53706 42.0664 7.24902C41.6563 6.94508 41.0578 6.79302 40.2705 6.79297C39.5814 6.79297 39.0233 6.92913 38.5967 7.20117C38.1701 7.4732 37.957 7.83321 37.957 8.28125C37.9571 8.71317 38.0961 9.03323 38.375 9.24121C38.6703 9.44924 39.1054 9.59284 39.6797 9.67285L42.0664 9.91309C43.4774 10.0411 44.5037 10.4253 45.1436 11.0654C45.7997 11.6895 46.1279 12.5859 46.1279 13.7539C46.1279 14.5059 45.9058 15.1617 45.4629 15.7217C45.0363 16.2818 44.4211 16.7145 43.6172 17.0186C42.8297 17.3226 41.9024 17.4746 40.8359 17.4746C39.0806 17.4746 37.6699 17.1219 36.6035 16.418C35.5534 15.6979 34.9463 14.7298 34.7822 13.5137H37.9072C38.022 14.1376 38.3174 14.5938 38.793 14.8818C39.2688 15.1699 39.942 15.3144 40.8115 15.3145C41.5334 15.3145 42.1076 15.1857 42.5342 14.9297C42.9607 14.6577 43.1737 14.306 43.1738 13.874C43.1738 13.4421 43.0266 13.0978 42.7314 12.8418C42.4361 12.5858 41.976 12.4253 41.3525 12.3613L39.0645 12.0977C37.6862 11.9536 36.644 11.5852 35.9385 10.9932C35.2495 10.3851 34.9053 9.53718 34.9053 8.44922C34.9053 7.26514 35.3806 6.32871 36.332 5.64062C37.3001 4.95253 38.6134 4.6084 40.2705 4.6084Z" fill="#CFDEE5"/><path fill-rule="evenodd" clip-rule="evenodd" d="M26.6826 4.68066C27.8637 4.68073 28.9134 4.9531 29.832 5.49707C30.7508 6.0251 31.465 6.75264 31.9736 7.68066C32.4987 8.6088 32.7607 9.68129 32.7607 10.8975V11.6416H23.21C23.2894 12.7783 23.593 13.6663 24.123 14.3057C24.7465 15.0417 25.6568 15.4102 26.8545 15.4102C27.7569 15.4102 28.4791 15.218 29.0205 14.834C29.5618 14.4339 29.8981 13.8976 30.0293 13.2256H32.6133C32.3508 14.5858 31.7356 15.6266 30.7676 16.3467C29.7996 17.0506 28.487 17.4023 26.8301 17.4023C25.5831 17.4023 24.4919 17.1459 23.5566 16.6338C22.6379 16.1057 21.9236 15.3699 21.415 14.4258C20.9229 13.4657 20.6768 12.3296 20.6768 11.0176C20.6768 9.70541 20.9228 8.57694 21.415 7.63281C21.9073 6.68868 22.6054 5.96031 23.5078 5.44824C24.4101 4.93636 25.4687 4.68066 26.6826 4.68066ZM26.707 6.55273C25.936 6.55273 25.2877 6.72069 24.7627 7.05664C24.2377 7.39267 23.8436 7.88888 23.5811 8.54492C23.4242 8.92734 23.3161 9.37585 23.2529 9.88965H30.1523C30.1031 9.21755 29.9231 8.63279 29.6113 8.13672C29.2996 7.62476 28.8974 7.23296 28.4053 6.96094C27.9131 6.68893 27.3468 6.55277 26.707 6.55273Z" fill="#CFDEE5"/><path d="M13.9082 4.63281C14.7611 4.63288 15.5157 4.81678 16.1719 5.18457C16.8282 5.53657 17.3452 6.07303 17.7227 6.79297C18.1165 7.49707 18.3135 8.3616 18.3135 9.38574V17.2109H16.4678V9.76953C16.4678 8.56938 16.1888 7.70483 15.6309 7.17676C15.0729 6.63281 14.3179 6.36133 13.3662 6.36133C12.7591 6.36133 12.2011 6.50497 11.6924 6.79297C11.2002 7.06496 10.8061 7.44096 10.5107 7.9209C10.2318 8.40097 10.0928 8.96147 10.0928 9.60156V17.2109H8.22168V9.76953C8.22168 8.56938 7.94271 7.70483 7.38477 7.17676C6.82685 6.6328 6.07178 6.36135 5.12012 6.36133C4.51294 6.36133 3.96301 6.50493 3.4707 6.79297C2.97847 7.06497 2.58443 7.44093 2.28906 7.9209C2.01009 8.40097 1.87109 8.96147 1.87109 9.60156V17.2109H0V4.9209H1.87109V6.71875C2.31452 6.0704 2.86299 5.5664 3.51953 5.20898C4.24144 4.82501 4.95563 4.63289 5.66113 4.63281C6.51427 4.63281 7.26947 4.81669 7.92578 5.18457C8.5986 5.53662 9.12452 6.07287 9.50195 6.79297C9.58564 6.94259 9.65773 7.10058 9.72363 7.26465C9.79083 7.1274 9.86259 6.99336 9.94434 6.86523C10.4202 6.14519 11.0112 5.59304 11.7168 5.20898C12.4389 4.82493 13.1697 4.63281 13.9082 4.63281Z" fill="#CFDEE5"/><path d="M51.8887 6.75488C52.3342 6.07395 52.8753 5.54267 53.5127 5.16113C54.2509 4.72916 54.9974 4.51279 55.752 4.5127C56.6544 4.5127 57.4505 4.70481 58.1396 5.08887C58.8451 5.47292 59.3953 6.04088 59.7891 6.79297C60.1827 7.52894 60.3789 8.43302 60.3789 9.50488V17.21H56.7617V10.249C56.7617 9.36909 56.5396 8.7291 56.0967 8.3291C55.6537 7.91319 55.0633 7.70511 54.3252 7.70508C53.866 7.70508 53.4475 7.80878 53.0703 8.0166C52.7094 8.22463 52.4213 8.50537 52.208 8.85742C51.9949 9.20931 51.8887 9.61728 51.8887 10.0811V17.21H48.2705V0H51.8887V6.75488Z" fill="#CFDEE5"/></svg>
